<?xml version="1.0" standalone="no"?>
<!DOCTYPE svg PUBLIC "-//W3C//DTD SVG 20010904//EN"
 "http://www.w3.org/TR/2001/REC-SVG-20010904/DTD/svg10.dtd">
<svg version="1.0" xmlns="http://www.w3.org/2000/svg"
 width="1280.000000pt" height="325.000000pt" viewBox="0 0 1280.000000 325.000000"
 preserveAspectRatio="xMidYMid meet">
<metadata>
Created by potrace 1.15, written by Peter Selinger 2001-2017
</metadata>
<g transform="translate(0.000000,325.000000) scale(0.100000,-0.100000)"
fill="#2196f3" stroke="none">
<path d="M3255 3159 c-110 -50 -204 -94 -208 -99 -5 -4 6 -16 24 -27 l32 -21
51 23 c28 13 110 50 182 83 l132 60 59 -48 c54 -44 61 -47 87 -36 l28 11 -91
73 c-50 39 -92 72 -93 71 -2 0 -93 -41 -203 -90z"/>
<path d="M9457 3178 c-48 -39 -87 -73 -87 -78 0 -4 11 -11 25 -14 21 -5 37 2
81 39 31 25 59 45 63 45 5 0 88 -36 185 -80 l177 -81 29 18 c17 10 29 21 27
26 -2 8 -127 67 -373 176 l-40 18 -87 -69z"/>
<path d="M3275 3073 c-93 -42 -171 -77 -173 -78 -1 -2 -8 -43 -14 -94 -6 -50
-15 -91 -20 -91 -5 0 -26 9 -47 19 l-37 20 -867 -1207 c-476 -664 -872 -1215
-879 -1224 -8 -12 -72 -34 -178 -62 -211 -56 -427 -122 -627 -191 -160 -55
-415 -153 -400 -154 4 -1 79 17 165 38 1281 322 2973 543 4742 621 862 38
2058 38 2920 0 1764 -78 3464 -300 4742 -621 86 -21 161 -39 165 -38 38 2
-609 229 -843 295 l-101 29 -889 1238 c-489 682 -894 1247 -901 1256 -10 14
-15 14 -56 -6 l-46 -22 -5 27 c-3 15 -8 57 -12 94 l-6 67 -176 79 -176 80 -64
-52 -63 -51 0 -257 0 -257 -166 -87 -166 -86 -1319 293 -1318 294 -260 -260
-259 -259 -3 99 -3 100 -135 0 -135 0 -2 -240 -2 -239 -208 -208 c-202 -202
-208 -207 -257 -215 -46 -7 -56 -5 -106 22 -30 16 -381 201 -780 410 l-725
380 -5 257 -5 256 -64 51 c-35 28 -64 51 -65 51 0 0 -77 -35 -171 -77z m3814
-747 c319 -312 581 -569 581 -570 0 -1 -89 13 -197 31 -109 18 -206 33 -216
33 -13 0 -479 -346 -744 -552 -8 -7 -127 78 -383 273 -204 155 -369 286 -368
290 2 5 164 180 361 390 323 343 360 379 375 366 177 -151 680 -584 747 -643
l90 -78 -115 120 c-64 65 -263 269 -443 453 l-327 334 -382 -389 c-211 -214
-432 -439 -491 -501 -95 -97 -114 -112 -150 -117 -23 -4 -53 -9 -67 -13 -17
-3 168 188 550 571 316 317 580 575 586 574 6 -2 273 -259 593 -572z m3734
-768 c429 -632 777 -1151 775 -1153 -2 -2 -78 14 -168 36 -215 51 -447 100
-642 134 l-158 29 0 55 c0 30 -5 118 -11 196 -10 124 -14 144 -38 180 l-27 40
-149 22 c-83 12 -151 22 -152 22 -2 1 -3 36 -2 79 1 54 3 69 9 52 4 -14 8 -20
9 -14 1 6 25 27 54 46 l52 35 17 -21 c46 -56 -182 309 -280 449 l-112 159 0
66 c0 36 -3 88 -5 115 -3 28 -12 174 -20 325 l-15 275 32 28 c29 25 34 26 43
12 6 -9 360 -534 788 -1167z m-7782 1141 c54 -32 169 -117 169 -125 0 -2 -33
20 -73 51 -41 30 -77 55 -80 55 -11 0 -17 -63 -37 -412 l-20 -347 -88 -133
c-48 -73 -100 -146 -115 -162 -15 -16 -27 -33 -27 -38 0 -4 -44 -75 -97 -156
-136 -208 -254 -394 -251 -397 2 -1 75 7 163 19 l160 22 3 -78 c2 -63 6 -77
20 -80 9 -2 -64 -14 -163 -27 -99 -12 -191 -26 -204 -30 -23 -7 -24 -9 -22
-109 2 -120 15 -110 -154 -136 -142 -23 -428 -79 -624 -122 -85 -19 -156 -32
-158 -30 -5 5 1529 2266 1538 2266 4 0 32 -14 60 -31z m466 -346 c-3 -5 -10
-173 -17 -375 -8 -203 -16 -366 -18 -363 -9 9 21 745 30 745 5 0 7 -3 5 -7z
m2246 -660 c4 -2 7 -11 7 -20 0 -13 -3 -13 -26 2 -14 9 -27 15 -28 13 -2 -2 5
-124 15 -273 21 -308 21 -321 9 -285 -4 14 -13 117 -19 230 -7 113 -14 238
-18 278 l-6 73 29 -7 c16 -4 32 -9 37 -11z m1555 -25 c-1 -38 -2 -39 -5 -10
l-4 32 -29 -20 c-35 -25 -39 -25 -33 0 3 12 19 24 37 29 17 5 32 10 34 10 1 1
1 -18 0 -41z m-2823 -48 c3 -5 -1 -10 -10 -10 -9 0 -13 5 -10 10 3 6 8 10 10
10 2 0 7 -4 10 -10z m1613 -212 c175 -122 335 -237 357 -254 l41 -33 363 255
c200 139 367 254 370 254 3 0 -1 -127 -9 -281 l-15 -282 -73 -49 c-40 -27 -70
-53 -67 -58 3 -5 -242 -8 -564 -7 -313 1 -565 5 -559 8 6 4 -24 30 -66 58 -42
28 -76 57 -76 64 0 7 -7 125 -15 262 -17 291 -17 285 -9 285 3 0 148 -100 322
-222z m3439 100 c-2 -18 -4 -4 -4 32 0 36 2 50 4 33 2 -18 2 -48 0 -65z
m-6070 -40 c-2 -24 -4 -7 -4 37 0 44 2 63 4 43 2 -21 2 -57 0 -80z m3830 15
c-2 -21 -4 -6 -4 32 0 39 2 55 4 38 2 -18 2 -50 0 -70z m-2719 71 c22 -15 22
-19 22 -230 0 -163 -3 -216 -12 -219 -7 -2 -113 -16 -235 -30 -211 -24 -287
-30 -215 -16 l33 6 2 212 c2 181 0 213 -13 215 -11 3 342 73 385 77 6 1 21 -6
33 -15z m3947 -4 c17 -4 22 -8 13 -9 -17 -1 -18 -19 -18 -220 0 -200 2 -220
18 -225 9 -3 -12 -2 -48 1 -36 3 -70 9 -77 15 -8 7 -10 65 -6 216 4 172 8 209
21 220 17 13 50 14 97 2z m-4515 -50 c0 -11 -2 -20 -4 -20 -2 0 -11 -3 -20 -6
-11 -4 -16 0 -16 13 0 23 8 33 27 33 7 0 13 -9 13 -20z m3277 -182 c-2 -24 -4
-7 -4 37 0 44 2 63 4 43 2 -21 2 -57 0 -80z m2260 -71 c-2 -23 -3 -1 -3 48 0
50 1 68 3 42 2 -26 2 -67 0 -90z m-6912 81 c-3 -8 16 -25 46 -41 28 -16 53
-36 57 -45 4 -11 9 4 13 38 5 44 6 36 6 -41 0 -53 -3 -102 -6 -108 -6 -9 -280
-56 -287 -49 -2 3 168 258 172 258 2 0 1 -6 -1 -12z m822 -175 c-2 -32 -3 -6
-3 57 0 63 1 89 3 58 2 -32 2 -84 0 -115z m-638 26 c7 11 13 9 30 -8 11 -11
33 -21 48 -21 42 0 23 -7 -39 -14 l-58 -7 2 73 c2 66 2 68 5 18 3 -34 7 -49
12 -41z m4458 -21 c-2 -24 -4 -7 -4 37 0 44 2 63 4 43 2 -21 2 -57 0 -80z
m2927 31 l5 -65 -72 10 c-57 9 -64 12 -35 14 20 2 42 10 48 18 7 8 19 14 26
14 10 0 14 13 14 42 0 60 7 44 14 -33z m-4897 -96 l298 -147 -300 -12 c-165
-7 -303 -10 -307 -8 -11 7 -10 314 1 314 5 0 144 -66 308 -147z m2703 -19 l0
-167 -87 6 c-49 4 -158 9 -243 12 -85 3 -184 8 -220 12 l-65 6 300 147 c165
82 303 149 308 149 4 1 7 -74 7 -165z m1547 -61 c-2 -27 -3 -5 -3 47 0 52 1
74 3 48 2 -27 2 -69 0 -95z m-6607 30 c0 -105 -2 -107 -102 -119 l-58 -6 0 39
c0 22 3 61 6 86 l7 46 46 4 c112 9 101 14 101 -50z m497 -55 c-2 -13 -4 -5 -4
17 -1 22 1 32 4 23 2 -10 2 -28 0 -40z m8193 -598 c8 -5 11 -10 5 -10 -5 0
-17 5 -25 10 -8 5 -10 10 -5 10 6 0 17 -5 25 -10z"/>
<path d="M6350 2070 l0 -70 70 0 70 0 0 70 0 70 -70 0 -70 0 0 -70z"/>
<path d="M6510 2070 l0 -70 70 0 70 0 0 70 0 70 -70 0 -70 0 0 -70z"/>
<path d="M6350 1890 l0 -70 70 0 70 0 0 70 0 70 -70 0 -70 0 0 -70z"/>
<path d="M6510 1890 l0 -70 70 0 70 0 0 70 0 70 -70 0 -70 0 0 -70z"/>
<path d="M9983 2580 c0 -30 2 -43 4 -27 2 15 2 39 0 55 -2 15 -4 2 -4 -28z"/>
<path d="M6052 1304 c4 -6 8 -27 10 -48 2 -30 8 -40 36 -56 18 -11 35 -20 38
-20 2 0 4 17 4 38 0 28 -6 41 -22 51 -13 8 -34 21 -48 30 -13 9 -21 11 -18 5z"/>
<path d="M6910 1280 c-40 -26 -44 -33 -41 -62 1 -18 4 -34 6 -36 1 -2 18 6 37
18 29 17 35 26 35 53 -1 18 2 38 7 45 10 17 6 16 -44 -18z"/>
<path d="M6160 1202 c0 -38 3 -41 61 -76 33 -20 65 -36 70 -36 5 0 9 13 9 29
0 31 -21 51 -102 100 l-38 23 0 -40z"/>
<path d="M6778 1197 c-65 -40 -68 -44 -68 -81 0 -37 1 -38 23 -24 12 8 43 27
70 42 43 26 47 31 47 67 0 21 -1 39 -2 39 -2 0 -33 -19 -70 -43z"/>
<path d="M6052 1197 c10 -8 18 -31 19 -55 3 -36 8 -45 36 -62 l33 -19 0 48 c0
48 0 48 -52 75 -29 15 -45 21 -36 13z"/>
<path d="M6918 1182 c-47 -26 -48 -28 -48 -74 l0 -48 32 20 c27 16 32 25 33
60 1 27 7 45 21 55 30 22 14 17 -38 -13z"/>
<path d="M6162 1093 c3 -45 5 -48 63 -84 33 -21 63 -38 68 -38 4 -1 7 21 7 48
l0 49 -64 36 c-35 20 -67 36 -71 36 -3 0 -5 -21 -3 -47z"/>
<path d="M6773 1103 l-63 -35 0 -49 c0 -27 3 -49 8 -48 4 0 34 17 67 38 58 36
60 39 63 84 2 26 -1 47 -5 46 -4 0 -36 -16 -70 -36z"/>
<path d="M5653 2698 c-85 -26 -133 -46 -133 -55 0 -19 18 -17 156 19 l124 32
124 -30 c102 -26 126 -29 130 -17 3 7 0 16 -7 18 -55 20 -241 75 -250 74 -7 0
-72 -19 -144 -41z"/>
</g>
</svg>
